<svg xmlns="http://www.w3.org/2000/svg" viewBox="0 0 1335.35 510.04"><defs><style>.cls-1{fill:#8d92df;}.cls-2,.cls-4{fill:#130f41;}.cls-3{fill:#ec088f;}.cls-4{fill-rule:evenodd;}</style></defs><g id="Layer_2" data-name="Layer 2"><g id="Layer_1-2" data-name="Layer 1"><circle class="cls-1" cx="1057.58" cy="263.29" r="51.73"/><path class="cls-1" d="M1335.35,263.29c0-36.79-46.07-71.65-116.7-93.27,16.3-72,9.06-129.26-22.86-147.6a45.28,45.28,0,0,0-13-5,86.41,86.41,0,0,0-38.19,12c-9.74,5.87-19.39,14-25.61,23.59a71.73,71.73,0,0,0-4.35,7.8c17.55-11,36.53-18.71,55.79-19.56v.11a26.17,26.17,0,0,1,12.91,3c15.39,8.82,22.07,42.44,16.86,85.68-1.24,10.64-3.28,21.85-5.77,33.28-35.39-4-62.07.3-68.39,2,7.63.93,50,14,61.94,22.54-4.19,14.6-9.4,29.66-15.28,44.71-18.33-25.76-30.69-28-40.66-32.25,29.87,42.83,27.28,62.4,27.53,62.92-7.13,15.17-14.94,30.34-23.43,45.17-8.83,15.28-17.89,29.77-27.28,43.23-16.87,1.48-34,2.27-51.16,2.27-12.25,0-24.5-.41-36.63-1.15.25.41,22,19.56,68,25.48a439,439,0,0,1-31.13,36.22C1021,393.25,991,347.25,991,347.25s19,62,48.89,85c-36.9,34.29-71.54,53.08-95.08,53.08-5.1-.11-10.4-.13-13.79-2.05-9.32-5.35-15.6-8.77-21.48-27-1.13,17.06,3.67,34.62,15.45,46,8.08,4.24,49,23,133.12-52.43,41.2,38.26,81.95,60.22,113.08,60.22,9.5,0,18.11-2,25.58-6.34,31.8-18.34,38.93-75.5,22.52-147.26C1289.51,334.82,1335.35,300,1335.35,263.29ZM1158,320.9c5.21-9,10.08-18.22,14.72-27.28,6.11,15.17,11.32,30.34,15.62,45.05-14.83,3.62-30.45,6.68-46.64,9.06C1147.23,339,1152.78,330.07,1158,320.9Zm26,161c-3.4,2-7.81,2.94-13,2.94-23.43,0-58.18-18.68-95.08-52.75a535,535,0,0,0,46.75-56.48,528.71,528.71,0,0,0,72-12.45,316.11,316.11,0,0,1,5.88,32.94C1205.86,439.3,1199.3,472.91,1184,481.86Zm60.1-161.3c-9.73,4.19-20.37,7.92-31.35,11.43a546.4,546.4,0,0,0-25.47-68.93,536.61,536.61,0,0,0,25.13-68.59c11.2,3.51,21.84,7.36,31.8,11.54,40.07,17.09,66,39.51,66,57.28S1284.19,303.58,1244.12,320.56Z"/><polygon class="cls-2" points="415.04 70.25 1179.04 70 1060.04 251.85 333.48 251.85 415.04 70.25"/><polygon class="cls-2" points="81.04 292.25 1010.04 291.78 892.04 473.25 0 473.63 81.04 292.25"/><rect class="cls-2" x="37.19" y="61.86" width="251.86" height="190"/><path class="cls-1" d="M289,61.86,317.76,0V179L289,251.86Z"/><path class="cls-2" d="M107.88,0H317.76L289,61.86H37.19Z"/><rect class="cls-3" x="72.53" y="119.3" width="176.74" height="83.95"/><path class="cls-4" d="M121.76,169.09a5.36,5.36,0,0,1-5.45-5.26,3.18,3.18,0,0,0-6.36,0,5.46,5.46,0,0,1-10.91,0,14.09,14.09,0,0,1,28.17,0A5.36,5.36,0,0,1,121.76,169.09Z"/><path class="cls-4" d="M214.31,169.09a5.36,5.36,0,0,1-5.45-5.26,3.19,3.19,0,0,0-6.37,0,5.45,5.45,0,0,1-10.9,0,14.09,14.09,0,0,1,28.17,0A5.36,5.36,0,0,1,214.31,169.09Z"/><path class="cls-1" d="M576.27,67.36a19.08,19.08,0,0,1-1,2.5,4.17,4.17,0,0,1-.6.7l-1.8,3h.2a82.14,82.14,0,0,0-7.7,9.5q-3.69,5.31-7.2,10.7t-6.9,10.7q-3.39,5.31-6.6,9.5-8.59,12-16.6,24.4t-16.6,24.5q-8.6,12.1-18.1,23.7a223,223,0,0,1-20.9,22.2,31.11,31.11,0,0,1-9.8,6.3,28.41,28.41,0,0,1-10.8,2.3,19.34,19.34,0,0,1-10-2.6,13.21,13.21,0,0,1-6-7.6l-2-14.2-9.2,7.2c-2,1.74-4.06,3.47-6.2,5.2s-4.23,3.33-6.3,4.8a42.57,42.57,0,0,1-6.2,3.7,16,16,0,0,1-5.7,1.7h-2.2a40.53,40.53,0,0,1-5.8-.4,15.94,15.94,0,0,1-5.1-1.6,11.66,11.66,0,0,1-3.9-3.3,11.12,11.12,0,0,1-2-5.5,334.05,334.05,0,0,1,9-48.6q6.21-23.4,12.8-44l6.8-21.4V91a64.81,64.81,0,0,1,6.8-14.1,46.82,46.82,0,0,1,7.8-9.2,29.66,29.66,0,0,1,7.8-5.1,18.34,18.34,0,0,1,7-1.6,8.68,8.68,0,0,1,5.9,2,6.24,6.24,0,0,1,2.1,5.4,8.2,8.2,0,0,1-.1,1.4,13.34,13.34,0,0,1-.3,1.4q-1.2,7-2.2,11.7c-.66,3.14-1.3,6-1.9,8.6s-1.2,5.17-1.8,7.7-1.16,5.54-1.7,9a31.13,31.13,0,0,1-.8,3.3c-.4,1.4-.8,2.84-1.2,4.3s-.76,2.9-1.1,4.3a15.87,15.87,0,0,0-.5,3.5c-.26,1.47.07,2.2,1,2.2a3.55,3.55,0,0,0,2.2-1q2.2-3.2,4.1-5.8t4-5.2q2.1-2.6,4.8-5.6t6.7-7.2a15.72,15.72,0,0,1,9.4-3.4,12.14,12.14,0,0,1,6.7,2,17.65,17.65,0,0,1,5.2,5.2,25,25,0,0,1,3.2,7.3,26.53,26.53,0,0,1,.9,8.3,10,10,0,0,0-.2,1.9,9.17,9.17,0,0,1-.2,1.9l1.6.6q8.61-16.59,15.2-28.3t11.4-19.2a86.8,86.8,0,0,1,7.9-10.9c2.07-2.26,3.7-3.4,4.9-3.4a6.15,6.15,0,0,1,1.1.1,6.66,6.66,0,0,0,1.3.1l2.6-.5a12.44,12.44,0,0,0,4.4-2.3,54.35,54.35,0,0,1,12.1-6.3,36.35,36.35,0,0,1,12.5-2.3,20.78,20.78,0,0,1,12.3,3.6Q575.87,59,576.27,67.36Z"/><path class="cls-1" d="M603.67,67.56a56,56,0,0,1,14.8-7.6,48,48,0,0,1,15.2-2.6,32.12,32.12,0,0,1,5.6.5,36.3,36.3,0,0,1,5.6,1.5,30.19,30.19,0,0,1,7.9-5,20.32,20.32,0,0,1,7.7-1.6,20.87,20.87,0,0,1,11.4,3.3,26.86,26.86,0,0,1,8.6,8.9,9.23,9.23,0,0,0,.5,2.6c.33,1.07.63,2.2.9,3.4l.8,4.6a49.85,49.85,0,0,1,1.2,14.4,97.15,97.15,0,0,1-4.4,23.3,195.85,195.85,0,0,1-9.5,24.6,221.14,221.14,0,0,1-12.7,23.6,236.85,236.85,0,0,1-13.8,20.1q-6.19,7.8-13.5,15.5a105.48,105.48,0,0,1-15.8,13.7,83.33,83.33,0,0,1-18.1,9.7,55.08,55.08,0,0,1-20,3.7q-11.6,0-19.5-3.7A34.89,34.89,0,0,1,544,211a34.22,34.22,0,0,1-6.6-13.2,47.56,47.56,0,0,1-1.5-14.6,78.55,78.55,0,0,1,3.2-18.4,159.47,159.47,0,0,1,7-19.2q4.2-9.6,9.2-18.8t9.8-17v.2q3.2-4.8,7.8-10.7t9.7-11.8a153.17,153.17,0,0,1,10.6-11.1A105.16,105.16,0,0,1,603.67,67.56Zm-14,126.8a131.21,131.21,0,0,0,16.3-20.3,188.26,188.26,0,0,0,14.1-25.3,211.39,211.39,0,0,0,10.4-27.2,135,135,0,0,0,5.4-26q-7.61,7.8-17,18t-18.4,21.7a231.64,231.64,0,0,0-16.3,23.7,110.29,110.29,0,0,0-10.9,23.8l-.6,3.8c.13.67.3,1.7.5,3.1a23.78,23.78,0,0,0,1.1,4.4,19.27,19.27,0,0,0,2.2,4.4,8.41,8.41,0,0,0,3.6,3.1l3.6-2.6c.93-.66,2-1.36,3.1-2.1A13.11,13.11,0,0,0,589.67,194.36Z"/><path class="cls-1" d="M758.07,59.36a26.56,26.56,0,0,1,7.2.9,26.24,26.24,0,0,1,5.4,2.1,26.78,26.78,0,0,1,.6,3.1,10.83,10.83,0,0,1,0,2.9,6.53,6.53,0,0,1-1.2,3.5,34.3,34.3,0,0,1-3.6,3.7v1.8a9.42,9.42,0,0,1-.2,1.8,62.18,62.18,0,0,1-2.8,16.1q-2.4,7.5-5.2,14.5l1.6,1q5.4-7,11.5-14.5t12.7-14.6a186.16,186.16,0,0,1,13.7-13.3,99.84,99.84,0,0,1,14.5-10.6h-.2A31.57,31.57,0,0,1,820,55a39.64,39.64,0,0,1,8.5-1,16,16,0,0,1,8.8,2.3q3.6,2.31,3.2,7.5a16.78,16.78,0,0,1-.2,3q-12.79,39-26.2,73.3a655.46,655.46,0,0,1-29.6,65.3,18.86,18.86,0,0,1-9.7,8.7,33.8,33.8,0,0,1-13.5,2.9,19.57,19.57,0,0,1-9.2-2,6,6,0,0,1-3.6-6,1.82,1.82,0,0,0,.2-.8,1.85,1.85,0,0,1,.2-.8l3.6-13.8a13.1,13.1,0,0,0,1-2.3q1-2.49,2.7-6.6t3.8-9q2.1-4.89,4.1-9.5l-2-.8q-4.8,5.2-8,8.2a54.23,54.23,0,0,1-5.6,4.7,18.59,18.59,0,0,1-4.3,2.4c-1.27.47-2.63.9-4.1,1.3l-2,.6c-.8.14-1.9.3-3.3.5a30.34,30.34,0,0,1-4.3.3,20.93,20.93,0,0,1-4.9-.5c-1.4-.33-2.1-.9-2.1-1.7a34.54,34.54,0,0,0-1.3-5c-.33-.8-.6-1.4-.8-1.8a4.54,4.54,0,0,1-.4-1.5c-.07-.6-.1-1.9-.1-3.9l-1.8-.6q-6.2,14.61-11.2,24.3a79.79,79.79,0,0,1-10,15.5,29.32,29.32,0,0,1-10.7,8.2,34.06,34.06,0,0,1-13.3,2.4,20.39,20.39,0,0,1-10.1-2.4,7.39,7.39,0,0,1-4.1-7.2,39.85,39.85,0,0,1,2.3-9.1q2.1-6.09,5.4-13.9t7.3-16.7q4-8.9,8.1-17.5t7.8-16.3q3.7-7.69,6.5-13.1,2.59-5.19,6.4-11.8t8.1-13.2q4.3-6.6,8.8-12.6a93.79,93.79,0,0,1,8.5-10q6-8.79,14-12.2A39,39,0,0,1,758.07,59.36Zm12.8,3.2c-.27,0-.4-.2-.4-.6Z"/><path class="cls-1" d="M942.27,54.56q5.4.21,7.8,2.8a7.83,7.83,0,0,1,2,6.4,20.53,20.53,0,0,1-2.5,8.4,35.81,35.81,0,0,1-6.2,8.4,40.82,40.82,0,0,1-9.2,7,31.23,31.23,0,0,1-11.5,3.8q-5.4,1.41-9.3,2.5a56.08,56.08,0,0,0-6.7,2.3,23.19,23.19,0,0,0-4.9,2.8,23.66,23.66,0,0,0-3.9,3.8l-1.2,1.4a84.43,84.43,0,0,0-6.2,8.1,49.8,49.8,0,0,0-4.4,8.1l-2.4,5.2a18.93,18.93,0,0,0,7.4,1.6,56.43,56.43,0,0,0,10-.9,48.8,48.8,0,0,1,8.4-.9c2.26,0,3.4.67,3.4,2a7,7,0,0,1-.8,2q-1.61,3-3.7,6.3a40.06,40.06,0,0,1-5,6.3,43.51,43.51,0,0,1-6.5,5.5,29.59,29.59,0,0,1-8,3.9h.2q-4,.81-5.4,1.2c-.94.27-1.8.5-2.6.7a34,34,0,0,1-3.4.6q-2.2.3-7.4.5-1.8,2.2-4.7,6.1t-5.7,8.3q-2.8,4.41-4.8,8.3a18.25,18.25,0,0,0-2.2,6.1c0,.8.8,1.44,2.4,1.9a29.85,29.85,0,0,0,5.6,1q3.2.3,6.2.3h4q4,0,8.1-.4t10.3-1.2a5.3,5.3,0,0,1,2.2,1.8,3.89,3.89,0,0,1,.6,2c-.14.67-.3,1.37-.5,2.1a8.06,8.06,0,0,0-.3,2.1q-.4,3.41,3.8,5.4a1.67,1.67,0,0,1,.4,1.2q0,1.6-2,4.1a53.13,53.13,0,0,1-5.1,5.4,49,49,0,0,1-7.2,5.5,38,38,0,0,1-8.3,4h.2q-9.6,2.4-16.9,3.5a103.15,103.15,0,0,1-15.3,1.1H832a62.83,62.83,0,0,1-11.7-1.1,27.61,27.61,0,0,1-10.1-3.9,8.35,8.35,0,0,1-3.9-8.2,6.23,6.23,0,0,1,.4-1.8,222.39,222.39,0,0,1,7.8-29.7,226.5,226.5,0,0,1,11.6-27.8q6.79-13.69,15.5-27.6t19.5-29.3a24.17,24.17,0,0,0,3.3-7.1c.73-2.6,1.4-5.16,2-7.7a31.37,31.37,0,0,1,2.4-6.8,9.33,9.33,0,0,1,4.5-4.4q15.6-5.6,31.1-9.7a110.37,110.37,0,0,1,27.9-4.1c1.6,0,3.23.07,4.9.2s3.3.34,4.9.6Z"/><path class="cls-1" d="M952.67,108.16a154.06,154.06,0,0,1,7.5-13.5,108.14,108.14,0,0,1,9.9-13.6,62.26,62.26,0,0,1,11.2-10.4q5.79-4.09,11.4-4.1a13.27,13.27,0,0,1,8.4,3q1.39,6.81,2.4,12.2c.66,3.6,1.16,7,1.5,10.3s.53,6.4.6,9.4,0,6.17-.1,9.5c-.14,2-.27,4.24-.4,6.7s-.34,5-.6,7.7l1.6.4q2.79-4.8,6.3-10t6.9-10.5q3.39-5.3,6.6-10.5a94.13,94.13,0,0,0,5.4-10,43.51,43.51,0,0,1,8.4-10.9,54.3,54.3,0,0,1,10.5-7.8,52.31,52.31,0,0,1,11-4.7,36,36,0,0,1,9.9-1.6,14.38,14.38,0,0,1,6.8,1.4c1.73.94,2.53,2.2,2.4,3.8a3.88,3.88,0,0,1-.5,1.9c-.34.6-.7,1.24-1.1,1.9A6,6,0,0,0,1077,73q-.1,2.61-.3,6a37.48,37.48,0,0,1-1.4,7.7,28.49,28.49,0,0,1-5,9.3,188.84,188.84,0,0,0-11.4,17.7q-6.21,10.71-12.7,22.7t-12.9,24.1q-6.4,12.1-12,22.1t-10.1,16.8q-4.5,6.81-7.1,7.8a112.32,112.32,0,0,1-11.5,5.3,24.59,24.59,0,0,1-8.5,1.5,14.86,14.86,0,0,1-3.4,0c-1.2-.13-2.54-.33-4-.6-1.87-.13-3.24-1.47-4.1-4a37.53,37.53,0,0,1-1.7-9.5,125,125,0,0,1-.2-12.6q.2-6.9.4-13.3t.1-11.7a31.23,31.23,0,0,0-.9-7.9q-6.81,13.6-11.1,21.6t-7.2,12.8a62.63,62.63,0,0,1-4.9,7.2c-1.34,1.6-2.6,3.07-3.8,4.4l-3.4,3.8a19.83,19.83,0,0,1-4.7,5.6,31.06,31.06,0,0,1-6.2,4,31.48,31.48,0,0,1-6.8,2.4,29.54,29.54,0,0,1-6.5.8,12.45,12.45,0,0,1-6-1.3,3.83,3.83,0,0,1-2.2-3.9,7.67,7.67,0,0,1,1.4-4q2.4-8.59,7.5-21.7t11.4-27.2q6.3-14.1,12.8-27.6t11.9-23.1Z"/><path class="cls-3" d="M565.67,53.91a21.68,21.68,0,0,1-1,2.5,4.61,4.61,0,0,1-.6.7l-1.8,3h.2a80.28,80.28,0,0,0-7.7,9.5q-3.71,5.3-7.2,10.7T540.67,91q-3.4,5.3-6.6,9.5-8.6,12-16.6,24.4t-16.6,24.5q-8.6,12.09-18.1,23.7a225.26,225.26,0,0,1-20.9,22.2,31.58,31.58,0,0,1-9.8,6.3,28.41,28.41,0,0,1-10.8,2.3,19.31,19.31,0,0,1-10-2.6,13.24,13.24,0,0,1-6-7.6l-2-14.2-9.2,7.2q-3,2.59-6.2,5.2t-6.3,4.8a44,44,0,0,1-6.2,3.7,16.28,16.28,0,0,1-5.7,1.7h-2.2a42,42,0,0,1-5.8-.4,15.78,15.78,0,0,1-5.1-1.6,11.66,11.66,0,0,1-3.9-3.3,11.06,11.06,0,0,1-2-5.5,334.05,334.05,0,0,1,9-48.6q6.19-23.4,12.8-44l6.8-21.4v.2a64.81,64.81,0,0,1,6.8-14.1,45.87,45.87,0,0,1,7.8-9.2,29.17,29.17,0,0,1,7.8-5.1,18.12,18.12,0,0,1,7-1.6,8.63,8.63,0,0,1,5.9,2,6.27,6.27,0,0,1,2.1,5.4,8.28,8.28,0,0,1-.1,1.4c-.07.4-.17.86-.3,1.4q-1.2,7-2.2,11.7t-1.9,8.6c-.6,2.6-1.2,5.16-1.8,7.7s-1.17,5.53-1.7,9a31.13,31.13,0,0,1-.8,3.3c-.4,1.4-.8,2.83-1.2,4.3s-.77,2.9-1.1,4.3a15.8,15.8,0,0,0-.5,3.5c-.27,1.46.07,2.2,1,2.2a3.61,3.61,0,0,0,2.2-1c1.47-2.14,2.83-4.07,4.1-5.8s2.6-3.47,4-5.2,3-3.6,4.8-5.6,4-4.4,6.7-7.2a15.66,15.66,0,0,1,9.4-3.4,12.08,12.08,0,0,1,6.7,2,17.42,17.42,0,0,1,5.2,5.2,24.81,24.81,0,0,1,3.2,7.3,27.1,27.1,0,0,1,.9,8.3,9.91,9.91,0,0,0-.2,1.9,10,10,0,0,1-.2,1.9l1.6.6q8.59-16.61,15.2-28.3t11.4-19.2a85.06,85.06,0,0,1,7.9-10.9q3.11-3.4,4.9-3.4a5.35,5.35,0,0,1,1.1.1,7.46,7.46,0,0,0,1.3.1c.67-.14,1.53-.3,2.6-.5a12.7,12.7,0,0,0,4.4-2.3,53.52,53.52,0,0,1,12.1-6.3,36.12,36.12,0,0,1,12.5-2.3,20.78,20.78,0,0,1,12.3,3.6Q565.27,45.51,565.67,53.91Z"/><path class="cls-3" d="M593.07,54.11a55.26,55.26,0,0,1,14.8-7.6,47.76,47.76,0,0,1,15.2-2.6,31.18,31.18,0,0,1,5.6.5,34.17,34.17,0,0,1,5.6,1.5,29.67,29.67,0,0,1,7.9-5,20.13,20.13,0,0,1,7.7-1.6,20.87,20.87,0,0,1,11.4,3.3,26.86,26.86,0,0,1,8.6,8.9,9.36,9.36,0,0,0,.5,2.6c.33,1.06.63,2.2.9,3.4l.8,4.6a49.85,49.85,0,0,1,1.2,14.4,97.24,97.24,0,0,1-4.4,23.3,195.85,195.85,0,0,1-9.5,24.6,222.11,222.11,0,0,1-12.7,23.6,240.11,240.11,0,0,1-13.8,20.1q-6.21,7.8-13.5,15.5a106.56,106.56,0,0,1-15.8,13.7,83.33,83.33,0,0,1-18.1,9.7,55.29,55.29,0,0,1-20,3.7q-11.6,0-19.5-3.7a35,35,0,0,1-12.6-9.5,34.36,34.36,0,0,1-6.6-13.2,47.59,47.59,0,0,1-1.5-14.6,78.47,78.47,0,0,1,3.2-18.4,159.47,159.47,0,0,1,7-19.2q4.2-9.6,9.2-18.8t9.8-17v.2q3.19-4.8,7.8-10.7T572,74a149.16,149.16,0,0,1,10.6-11.1A101.66,101.66,0,0,1,593.07,54.11Zm-14,126.8a131.69,131.69,0,0,0,16.3-20.3,189.49,189.49,0,0,0,14.1-25.3,212,212,0,0,0,10.4-27.2,135.14,135.14,0,0,0,5.4-26q-7.6,7.8-17,18t-18.4,21.7a229.46,229.46,0,0,0-16.3,23.7,109.86,109.86,0,0,0-10.9,23.8l-.6,3.8c.13.66.3,1.7.5,3.1a24,24,0,0,0,1.1,4.4,19.47,19.47,0,0,0,2.2,4.4,8.48,8.48,0,0,0,3.6,3.1l3.6-2.6c.93-.67,2-1.37,3.1-2.1A13.66,13.66,0,0,0,579.07,180.91Z"/><path class="cls-3" d="M747.47,45.91a26.67,26.67,0,0,1,7.2.9,26.24,26.24,0,0,1,5.4,2.1,31.24,31.24,0,0,1,.6,3.1,10.83,10.83,0,0,1,0,2.9,6.77,6.77,0,0,1-1.2,3.5,35.26,35.26,0,0,1-3.6,3.7v1.8a9.59,9.59,0,0,1-.2,1.8,62.25,62.25,0,0,1-2.8,16.1q-2.4,7.5-5.2,14.5l1.6,1q5.4-7,11.5-14.5t12.7-14.6a180.29,180.29,0,0,1,13.7-13.3,97.85,97.85,0,0,1,14.5-10.6h-.2a31,31,0,0,1,7.9-2.8,39,39,0,0,1,8.5-1,16,16,0,0,1,8.8,2.3c2.4,1.53,3.46,4,3.2,7.5a16.93,16.93,0,0,1-.2,3q-12.81,39-26.2,73.3a659.83,659.83,0,0,1-29.6,65.3,19,19,0,0,1-9.7,8.7,33.8,33.8,0,0,1-13.5,2.9,19.57,19.57,0,0,1-9.2-2,6,6,0,0,1-3.6-6,1.85,1.85,0,0,0,.2-.8,1.66,1.66,0,0,1,.2-.8l3.6-13.8a14.27,14.27,0,0,0,1-2.3q1-2.51,2.7-6.6t3.8-9q2.1-4.91,4.1-9.5l-2-.8q-4.8,5.19-8,8.2a56.68,56.68,0,0,1-5.6,4.7,19.59,19.59,0,0,1-4.3,2.4c-1.27.46-2.64.9-4.1,1.3l-2,.6c-.8.13-1.9.3-3.3.5a30.44,30.44,0,0,1-4.3.3,21.48,21.48,0,0,1-4.9-.5c-1.4-.34-2.1-.9-2.1-1.7a35.56,35.56,0,0,0-1.3-5c-.34-.8-.6-1.4-.8-1.8a4.31,4.31,0,0,1-.4-1.5c-.07-.6-.1-1.9-.1-3.9l-1.8-.6q-6.21,14.6-11.2,24.3a80.89,80.89,0,0,1-10,15.5,29.51,29.51,0,0,1-10.7,8.2,34.1,34.1,0,0,1-13.3,2.4,20.36,20.36,0,0,1-10.1-2.4,7.37,7.37,0,0,1-4.1-7.2,39.19,39.19,0,0,1,2.3-9.1q2.1-6.11,5.4-13.9t7.3-16.7q4-8.91,8.1-17.5t7.8-16.3q3.69-7.71,6.5-13.1,2.6-5.2,6.4-11.8t8.1-13.2q4.29-6.6,8.8-12.6a92.8,92.8,0,0,1,8.5-10q6-8.8,14-12.2A38.82,38.82,0,0,1,747.47,45.91Zm12.8,3.2c-.27,0-.4-.2-.4-.6Z"/><path class="cls-3" d="M931.67,41.11q5.4.2,7.8,2.8a7.8,7.8,0,0,1,2,6.4,20.61,20.61,0,0,1-2.5,8.4,36.23,36.23,0,0,1-6.2,8.4,41.11,41.11,0,0,1-9.2,7,31.41,31.41,0,0,1-11.5,3.8q-5.4,1.4-9.3,2.5a54.36,54.36,0,0,0-6.7,2.3,22,22,0,0,0-8.8,6.6l-1.2,1.4a84.43,84.43,0,0,0-6.2,8.1,49.8,49.8,0,0,0-4.4,8.1l-2.4,5.2a19.11,19.11,0,0,0,7.4,1.6,56.43,56.43,0,0,0,10-.9,48.8,48.8,0,0,1,8.4-.9c2.26,0,3.4.66,3.4,2a7.25,7.25,0,0,1-.8,2q-1.61,3-3.7,6.3a40.06,40.06,0,0,1-5,6.3,44.11,44.11,0,0,1-6.5,5.5,30.18,30.18,0,0,1-8,3.9h.2q-4,.79-5.4,1.2c-.94.26-1.8.5-2.6.7a34,34,0,0,1-3.4.6c-1.47.2-3.94.36-7.4.5-1.2,1.46-2.77,3.5-4.7,6.1s-3.84,5.36-5.7,8.3-3.47,5.7-4.8,8.3a18.18,18.18,0,0,0-2.2,6.1c0,.8.8,1.43,2.4,1.9a30.68,30.68,0,0,0,5.6,1q3.19.3,6.2.3h4c2.66,0,5.36-.14,8.1-.4s6.16-.67,10.3-1.2a5.16,5.16,0,0,1,2.2,1.8,3.83,3.83,0,0,1,.6,2c-.14.66-.3,1.36-.5,2.1a7.94,7.94,0,0,0-.3,2.1q-.4,3.39,3.8,5.4a1.64,1.64,0,0,1,.4,1.2q0,1.59-2,4.1a55.31,55.31,0,0,1-5.1,5.4,49.65,49.65,0,0,1-7.2,5.5,38.47,38.47,0,0,1-8.3,4h.2q-9.6,2.4-16.9,3.5a103.15,103.15,0,0,1-15.3,1.1h-9.1a62.83,62.83,0,0,1-11.7-1.1,28,28,0,0,1-10.1-3.9,8.35,8.35,0,0,1-3.9-8.2,6.23,6.23,0,0,1,.4-1.8,222.39,222.39,0,0,1,7.8-29.7,225.86,225.86,0,0,1,11.6-27.8q6.79-13.71,15.5-27.6t19.5-29.3a24.29,24.29,0,0,0,3.3-7.1q1.1-3.9,2-7.7a31.18,31.18,0,0,1,2.4-6.8,9.29,9.29,0,0,1,4.5-4.4q15.6-5.61,31.1-9.7a109.92,109.92,0,0,1,27.9-4.1c1.6,0,3.23.06,4.9.2s3.3.33,4.9.6Z"/><path class="cls-3" d="M942.06,94.71a151.23,151.23,0,0,1,7.5-13.5,107.42,107.42,0,0,1,9.9-13.6,62.23,62.23,0,0,1,11.2-10.4q5.8-4.11,11.4-4.1a13.23,13.23,0,0,1,8.4,3q1.41,6.8,2.4,12.2t1.5,10.3c.34,3.26.54,6.4.6,9.4s0,6.16-.1,9.5q-.2,3-.4,6.7t-.6,7.7l1.6.4q2.81-4.8,6.31-10t6.89-10.5q3.4-5.31,6.61-10.5a93.14,93.14,0,0,0,5.39-10,43.62,43.62,0,0,1,8.4-10.9,54.09,54.09,0,0,1,10.5-7.8,51.71,51.71,0,0,1,11-4.7,35.75,35.75,0,0,1,9.9-1.6,14.28,14.28,0,0,1,6.81,1.4q2.6,1.4,2.39,3.8a3.8,3.8,0,0,1-.5,1.9c-.33.6-.7,1.23-1.1,1.9a6,6,0,0,0-1.7,4.2q-.09,2.6-.3,6a37,37,0,0,1-1.4,7.7,28.5,28.5,0,0,1-5,9.3,188.37,188.37,0,0,0-11.39,17.7q-6.21,10.7-12.71,22.7t-12.9,24.1q-6.39,12.09-12,22.1t-10.1,16.8q-4.5,6.79-7.1,7.8A110.37,110.37,0,0,1,982,199a24.51,24.51,0,0,1-8.5,1.5,14.85,14.85,0,0,1-3.4,0c-1.2-.14-2.53-.34-4-.6q-2.79-.21-4.1-4a38.11,38.11,0,0,1-1.69-9.5q-.4-5.7-.21-12.6t.4-13.3q.21-6.4.1-11.7a30.21,30.21,0,0,0-.9-7.9q-6.79,13.59-11.1,21.6t-7.2,12.8a60.14,60.14,0,0,1-4.9,7.2c-1.33,1.6-2.6,3.06-3.8,4.4l-3.39,3.8a20,20,0,0,1-4.71,5.6,30.78,30.78,0,0,1-6.2,4,32.38,32.38,0,0,1-6.8,2.4,29.47,29.47,0,0,1-6.5.8,12.56,12.56,0,0,1-6-1.3,3.83,3.83,0,0,1-2.2-3.9,7.57,7.57,0,0,1,1.41-4q2.38-8.61,7.5-21.7t11.39-27.2q6.3-14.1,12.8-27.6t11.9-23.1Z"/><path class="cls-1" d="M79.47,298.67a55.71,55.71,0,0,1,14.8-7.6,48,48,0,0,1,15.2-2.6,32.12,32.12,0,0,1,5.6.5,34.17,34.17,0,0,1,5.6,1.5,29.93,29.93,0,0,1,7.9-5,20.13,20.13,0,0,1,7.7-1.6,20.87,20.87,0,0,1,11.4,3.3,26.86,26.86,0,0,1,8.6,8.9,9.29,9.29,0,0,0,.5,2.6c.33,1.07.63,2.2.9,3.4l.8,4.6a49.85,49.85,0,0,1,1.2,14.4,97.24,97.24,0,0,1-4.4,23.3,195.85,195.85,0,0,1-9.5,24.6,221.14,221.14,0,0,1-12.7,23.6,240.11,240.11,0,0,1-13.8,20.1q-6.19,7.8-13.5,15.5A106.06,106.06,0,0,1,90,441.87a83.33,83.33,0,0,1-18.1,9.7,55.29,55.29,0,0,1-20,3.7q-11.59,0-19.5-3.7a35,35,0,0,1-12.6-9.5,34.36,34.36,0,0,1-6.6-13.2,47.56,47.56,0,0,1-1.5-14.6,78.47,78.47,0,0,1,3.2-18.4,159.47,159.47,0,0,1,7-19.2q4.2-9.6,9.2-18.8t9.8-17v.2q3.2-4.8,7.8-10.7t9.7-11.8A153.17,153.17,0,0,1,69,307.47,103.81,103.81,0,0,1,79.47,298.67Zm-14,126.8a131.69,131.69,0,0,0,16.3-20.3,188.87,188.87,0,0,0,14.1-25.3,211.39,211.39,0,0,0,10.4-27.2,135.14,135.14,0,0,0,5.4-26q-7.61,7.8-17,18t-18.4,21.7A231.64,231.64,0,0,0,60,390.07a110.08,110.08,0,0,0-10.9,23.8l-.6,3.8c.13.67.3,1.7.5,3.1a23.78,23.78,0,0,0,1.1,4.4,19.47,19.47,0,0,0,2.2,4.4,8.48,8.48,0,0,0,3.6,3.1l3.6-2.6c.93-.67,2-1.37,3.1-2.1A13.38,13.38,0,0,0,65.47,425.47Z"/><path class="cls-1" d="M168.87,438.47a20.87,20.87,0,0,1-9.5,9.8,26.74,26.74,0,0,1-12.1,3.2,16.4,16.4,0,0,1-9.3-2.6q-3.9-2.61-3.5-7.8a8.74,8.74,0,0,1,.5-2.7c.34-1,.77-2.1,1.3-3.3q1.8-4.4,5.4-12.3t8.2-17.5q4.6-9.6,9.8-20.2t10-20.8q4.8-10.2,8.9-19t6.5-14.8q5-9.8,8.4-15.9a98.48,98.48,0,0,1,6.1-9.8,31.73,31.73,0,0,1,5.1-5.7,32.11,32.11,0,0,1,5.4-3.6,54,54,0,0,1,15.1-5.5,124.37,124.37,0,0,1,13.5-1.5q3-.2,7-.8c2.67-.4,5.33-.83,8-1.3s5.3-.87,7.9-1.2a54.43,54.43,0,0,1,6.7-.5q6.6,0,9.6,3.3a10,10,0,0,1,2.6,7.9,25,25,0,0,1-2.9,10,51.25,51.25,0,0,1-7.1,10.5,62.63,62.63,0,0,1-10.2,9.4,45,45,0,0,1-12.2,6.5h.2a67.73,67.73,0,0,1-7.4,1.9,27.6,27.6,0,0,1-4.6.5,7.61,7.61,0,0,1-2.9-.4,6.42,6.42,0,0,1-1.4-.8,1.62,1.62,0,0,1-.6-.8c-.07-.27-.3-.4-.7-.4s-.87.33-1.4,1-1.1,1.47-1.7,2.4-1.2,1.9-1.8,2.9-1,1.77-1.3,2.3q-5.81,10.39-11,15.7t-7,6.9l20.8-1.6h1q4.6,0,6.9,2.8a8.72,8.72,0,0,1,2.1,6.2,7.07,7.07,0,0,1-4.4,6.2,14.48,14.48,0,0,0-4.9,3.1,13.05,13.05,0,0,0-2,3,24.8,24.8,0,0,1-1.6,2.9q-.9,1.4-4.1,2.7a52.85,52.85,0,0,1-9.6,2.5q-6.4,1.2-17.6,2.2l-7.6,14q-3,5-6.1,9.9a79.5,79.5,0,0,0-4.7,8.3,5.21,5.21,0,0,0-.9,1.7c-.33.87-.73,1.93-1.2,3.2s-1,2.6-1.6,4a27.05,27.05,0,0,1-1.9,3.7Z"/><path class="cls-1" d="M345.47,440.87a13.81,13.81,0,0,1-7.6,7.5,28.39,28.39,0,0,1-11.2,2.3,30.6,30.6,0,0,1-7-.8,22.89,22.89,0,0,1-5.9-2.2,12.69,12.69,0,0,1-4-3.4,7.48,7.48,0,0,1-1.5-4.6l.6-2.4q.4-5,5.3-16.5t12.5-26.2q7.59-14.7,17.1-30.9t19.3-30.5a276.06,276.06,0,0,1,19-24.9q9.19-10.61,16.2-14.4a66.91,66.91,0,0,1,10.7-3.8q6.5-1.8,12.9-3.2t11.4-2.3a47.72,47.72,0,0,1,6.6-.9q13.59,0,19.6,7.3t5.6,18.7q-.6,10.6-6,23.1a109.33,109.33,0,0,1-14.4,24,112.79,112.79,0,0,1-20.9,20.5,73.34,73.34,0,0,1-25.3,12.6l2.2,4.6v-.2q2.19,4.39,5.3,9.7t5.9,10.9a101.55,101.55,0,0,1,4.7,10.9,25.68,25.68,0,0,1,1.7,9.7,10.61,10.61,0,0,1-1.7,5.1,18.43,18.43,0,0,1-8.4,6.9,12.87,12.87,0,0,1-4.7,1,4.05,4.05,0,0,1-2.3-.6,11.92,11.92,0,0,1-1.8-1.5c-.6-.6-1.3-1.24-2.1-1.9a11.76,11.76,0,0,0-3.2-1.8,24.57,24.57,0,0,1-6.4,1,9.61,9.61,0,0,1-8.7-4.6,43.61,43.61,0,0,1-4.8-11q-1.91-6.4-3.7-13.3a36,36,0,0,0-5-11.5q-4,7.2-7.5,13.4t-6.3,11.6Zm64-117.8c-1.74,2.67-3.1,4.8-4.1,6.4s-1.84,2.93-2.5,4-1.24,2-1.7,2.8-1,1.67-1.5,2.6q-3.41,5.81-5.2,9.4c-1.2,2.4-2.14,4.27-2.8,5.6a32.73,32.73,0,0,0-1.6,3.2l1.2,1,6.2-4q4.59-2.2,8.3-4.1a36.6,36.6,0,0,0,6.7-4.4,36.12,36.12,0,0,0,5.7-6.1,57.64,57.64,0,0,0,5.5-9.4,10.08,10.08,0,0,1,2.2-5.1,10.53,10.53,0,0,0,2.2-5.5,6.91,6.91,0,0,0-1.1-3.3,4.13,4.13,0,0,0-3.9-1.9,9.28,9.28,0,0,0-5.8,2,34.1,34.1,0,0,0-4.6,4.2h.2l-2.6,2Z"/><path class="cls-1" d="M568.06,285.67c3.61.13,6.21,1.07,7.81,2.8a7.82,7.82,0,0,1,2,6.4,20.53,20.53,0,0,1-2.5,8.4,36.23,36.23,0,0,1-6.2,8.4,41,41,0,0,1-9.2,7,31.23,31.23,0,0,1-11.5,3.8c-3.6.93-6.7,1.77-9.3,2.5a53.78,53.78,0,0,0-6.7,2.3,23.09,23.09,0,0,0-4.91,2.8,23.6,23.6,0,0,0-3.89,3.8l-1.2,1.4a82.82,82.82,0,0,0-6.2,8.1,49,49,0,0,0-4.4,8.1l-2.4,5.2a18.93,18.93,0,0,0,7.4,1.6,56.43,56.43,0,0,0,10-.9,48.8,48.8,0,0,1,8.4-.9c2.26,0,3.4.67,3.4,2a7.13,7.13,0,0,1-.8,2c-1.07,2-2.31,4.1-3.7,6.3a40.06,40.06,0,0,1-5,6.3,44.64,44.64,0,0,1-6.5,5.5,29.59,29.59,0,0,1-8,3.9h.2q-4,.79-5.4,1.2c-.94.27-1.8.5-2.6.7a34.52,34.52,0,0,1-3.4.6q-2.21.3-7.41.5c-1.19,1.47-2.76,3.5-4.69,6.1s-3.84,5.37-5.7,8.3-3.47,5.7-4.8,8.3a18.18,18.18,0,0,0-2.2,6.1c0,.8.8,1.43,2.39,1.9a30.12,30.12,0,0,0,5.61,1q3.19.3,6.2.3h4q4,0,8.1-.4t10.3-1.2a5.22,5.22,0,0,1,2.2,1.8,3.84,3.84,0,0,1,.59,2c-.13.67-.29,1.37-.5,2.1a8.35,8.35,0,0,0-.29,2.1c-.27,2.27,1,4.07,3.79,5.4a1.63,1.63,0,0,1,.41,1.2c0,1.07-.67,2.43-2,4.1a53.13,53.13,0,0,1-5.1,5.4,49.65,49.65,0,0,1-7.2,5.5,38.47,38.47,0,0,1-8.3,4h.19q-9.58,2.4-16.89,3.5a103.15,103.15,0,0,1-15.3,1.1h-9.1a63,63,0,0,1-11.71-1.1,28,28,0,0,1-10.09-3.9,8.37,8.37,0,0,1-3.91-8.2,6.33,6.33,0,0,1,.41-1.8,220.88,220.88,0,0,1,7.8-29.7,225.86,225.86,0,0,1,11.6-27.8q6.79-13.69,15.5-27.6t19.5-29.3a24.17,24.17,0,0,0,3.3-7.1c.73-2.6,1.39-5.17,2-7.7a31.37,31.37,0,0,1,2.39-6.8,9.29,9.29,0,0,1,4.5-4.4q15.62-5.6,31.11-9.7a110.36,110.36,0,0,1,27.89-4.1c1.61,0,3.24.07,4.91.2s3.3.33,4.9.6Z"/><path class="cls-1" d="M646.27,289.47c2.53-1.07,5-2,7.5-2.9a20.31,20.31,0,0,1,6.7-1.3,28.36,28.36,0,0,1,6.3.7,19.55,19.55,0,0,1,5.5,2.1,11.83,11.83,0,0,1,3.79,3.4,6.5,6.5,0,0,1,1.21,4.4q0,3-3.8,7.6a13.52,13.52,0,0,1,7.2,10.2q-5.8,15.19-11.11,30.2t-10.5,29.9q-5.19,14.89-10.59,29.9t-11.41,30.2l-2,4.4c-.53,1.46-1,2.8-1.39,4a41.28,41.28,0,0,1-1.61,4,23.84,23.84,0,0,1-7.59,4.4,25.27,25.27,0,0,1-8.61,1.6,29.4,29.4,0,0,1-5.3-.5,20.6,20.6,0,0,1-5-1.6,11.62,11.62,0,0,1-3.7-2.7,5.61,5.61,0,0,1-1.39-3.8,25.35,25.35,0,0,1,2.5-7.9,52.23,52.23,0,0,0,3.5-10.9l2.8-9.4a35.26,35.26,0,0,0-6.5,2.2,52.84,52.84,0,0,0-5.6,2.9q-2.5,1.5-4.4,2.7t-2.91,1.8a19,19,0,0,1-4.89,2.1,23.1,23.1,0,0,1-3.8.6,23.69,23.69,0,0,0-3.2.4,7.54,7.54,0,0,0-2.91,1.3,102.81,102.81,0,0,1-15.59,17.6q-8,7-17.2,7a13,13,0,0,1-4.1-.7,10.73,10.73,0,0,1-3.7-2.1,11.65,11.65,0,0,1-2.7-3.6,10.46,10.46,0,0,1-.91-5.4,34.16,34.16,0,0,1,2.11-9.2,110,110,0,0,1,4.3-10.5c1.59-3.4,3.13-6.47,4.59-9.2s2.54-4.63,3.2-5.7q9.62-15.8,20.41-31.6t22.8-30.7q12-14.89,25.2-28.6a289.7,289.7,0,0,1,28-25.5l-.2.2Zm-50.21,108.4,18.8-.6,5.7-17.9q2.91-9.11,6.11-17.9l5.8-16.6-1.61-.8-10.59,12.4c-1.07,2.13-2.3,4.43-3.71,6.9s-2.7,4.77-3.89,6.9Z"/><path class="cls-1" d="M741.66,439.27a124.94,124.94,0,0,1-20.7,8.6,72.56,72.56,0,0,1-22.1,3.6,63.64,63.64,0,0,1-15-1.7,30.72,30.72,0,0,1-12.2-5.9,27.71,27.71,0,0,1-8.1-11.1q-2.89-6.9-2.3-17.1a118.41,118.41,0,0,1,4.9-27.4,150.55,150.55,0,0,1,10.6-26.1,166.33,166.33,0,0,1,14.8-23.5,174.48,174.48,0,0,1,17.2-19.7,136.22,136.22,0,0,1,17.9-14.9,74.94,74.94,0,0,1,16.8-9,88,88,0,0,1,17-6.1,70.64,70.64,0,0,1,16.8-2.1c1.2,0,2.33,0,3.4.1s2.13.17,3.2.3h-.2q13.2,1.8,19.4,8.7t5.8,17.5a50.44,50.44,0,0,1-3.1,13.5,86.63,86.63,0,0,1-7.1,14.9,26.72,26.72,0,0,1-5.9,6.9,35.89,35.89,0,0,1-7.5,4.8,42.27,42.27,0,0,1-8.1,2.9,31.65,31.65,0,0,1-7.5,1q-5.4,0-7.7-2.2a7.37,7.37,0,0,1-2.1-6,15.66,15.66,0,0,1,1.4-4.9,17,17,0,0,0,1.4-5.9c.13-2.27-.17-3.8-.9-4.6a4,4,0,0,0-3.1-1.2c-1.07.13-2.2.27-3.4.4a10,10,0,0,0-3.4,1l-3.2,1.6c-1.47.8-2.93,1.63-4.4,2.5a49.33,49.33,0,0,0-4.7,3.2,73.78,73.78,0,0,0-5.7,4.9q-3.2,3-7.6,7.8a112.06,112.06,0,0,0-10.4,13.2,97.18,97.18,0,0,0-7.2,12.6,68.11,68.11,0,0,0-4.1,10.8,41.5,41.5,0,0,0-1.5,7.8,15.91,15.91,0,0,0,1,6.9,12.83,12.83,0,0,0,3.2,4.7,13.73,13.73,0,0,0,4.4,2.7,13.07,13.07,0,0,0,4.6.9,18.58,18.58,0,0,0,7.1-1.2,41.21,41.21,0,0,0,5.4-2.7,54.23,54.23,0,0,1,5.1-2.7,14.68,14.68,0,0,1,6.2-1.2c.8,0,1.87.07,3.2.2a14.16,14.16,0,0,1,3.8.9,9.79,9.79,0,0,1,3.1,1.9,4.14,4.14,0,0,1,1.3,3.2,16.16,16.16,0,0,1-1.3,4.8,16.16,16.16,0,0,0-1.3,4.8,2.91,2.91,0,0,0,.7,2,6,6,0,0,0,1.6,1.3,14.14,14.14,0,0,1,1.7,1.1,1.74,1.74,0,0,1,.8,1.4,4.68,4.68,0,0,1-1.3,3.1,27,27,0,0,1-3.1,3q-1.8,1.5-3.9,3t-3.9,2.7Z"/><path class="cls-1" d="M815.46,442.67q-5.6,8.19-10.2,10.5a19.74,19.74,0,0,1-8.8,2.3q-6.8,0-11.1-2.6t-3.9-8.2c.13-3.34,1.53-7.53,4.2-12.6q7.61-17.81,12.4-29.1t8.1-18.8q3.3-7.5,5.5-12.3t4.6-9.5q2.4-4.69,5.6-10.6t8.6-15.5q-1.4.19-2.7.3c-.87.07-1.77.1-2.7.1a19.57,19.57,0,0,1-10.2-2.5,7.59,7.59,0,0,1-3.8-7.7,20.44,20.44,0,0,1,4.6-12.4,69,69,0,0,1,12.2-10.8,100.34,100.34,0,0,1,15.3-6.7q9.71-3.49,20.9-6.5t22.7-5a121.45,121.45,0,0,1,20.5-2,15.63,15.63,0,0,1,5.5,1,16.74,16.74,0,0,1,4.7,2.6,13,13,0,0,1,3.2,3.7,8.25,8.25,0,0,1,1.2,4.1q-.4,4-6,7.2a11.76,11.76,0,0,0-5.2,5.7q-1.8,3.9-3.7,7.9a33.25,33.25,0,0,1-4.7,7.3,11.61,11.61,0,0,1-7.8,3.9,17,17,0,0,1-5,1.6c-1.73.27-3.4.5-5,.7s-3,.43-4.2.7a3.27,3.27,0,0,0-2.4,1.6l-10.2,18.8q-6.2,11.4-13.2,24.6t-14,25.9q-7,12.7-13.5,23.8T815.46,442.67Z"/><path class="cls-3" d="M68.47,287.11a55.41,55.41,0,0,1,14.8-7.6,47.76,47.76,0,0,1,15.2-2.6,31.18,31.18,0,0,1,5.6.5,34.17,34.17,0,0,1,5.6,1.5,29.67,29.67,0,0,1,7.9-5,20.13,20.13,0,0,1,7.7-1.6,20.87,20.87,0,0,1,11.4,3.3,26.77,26.77,0,0,1,8.6,8.9,9.36,9.36,0,0,0,.5,2.6c.33,1.06.63,2.2.9,3.4l.8,4.6a49.85,49.85,0,0,1,1.2,14.4,97.24,97.24,0,0,1-4.4,23.3,195.85,195.85,0,0,1-9.5,24.6,222.11,222.11,0,0,1-12.7,23.6,240.11,240.11,0,0,1-13.8,20.1q-6.19,7.8-13.5,15.5A106.06,106.06,0,0,1,79,430.31a83.33,83.33,0,0,1-18.1,9.7,55.29,55.29,0,0,1-20,3.7q-11.59,0-19.5-3.7a35,35,0,0,1-12.6-9.5,34.36,34.36,0,0,1-6.6-13.2,47.59,47.59,0,0,1-1.5-14.6,78.47,78.47,0,0,1,3.2-18.4,159.47,159.47,0,0,1,7-19.2q4.2-9.6,9.2-18.8t9.8-17v.2q3.19-4.8,7.8-10.7t9.7-11.8A149.16,149.16,0,0,1,58,295.91,103.81,103.81,0,0,1,68.47,287.11Zm-14,126.8a131.69,131.69,0,0,0,16.3-20.3,189.49,189.49,0,0,0,14.1-25.3,212,212,0,0,0,10.4-27.2,135.14,135.14,0,0,0,5.4-26q-7.61,7.8-17,18t-18.4,21.7A229.46,229.46,0,0,0,49,378.51a109.86,109.86,0,0,0-10.9,23.8l-.6,3.8c.13.66.3,1.7.5,3.1a24,24,0,0,0,1.1,4.4,19.47,19.47,0,0,0,2.2,4.4,8.48,8.48,0,0,0,3.6,3.1l3.6-2.6c.93-.67,2-1.37,3.1-2.1A13.66,13.66,0,0,0,54.47,413.91Z"/><path class="cls-3" d="M157.87,426.91a20.87,20.87,0,0,1-9.5,9.8,26.74,26.74,0,0,1-12.1,3.2,16.4,16.4,0,0,1-9.3-2.6q-3.9-2.61-3.5-7.8a8.74,8.74,0,0,1,.5-2.7c.33-1,.77-2.1,1.3-3.3q1.8-4.41,5.4-12.3t8.2-17.5q4.6-9.6,9.8-20.2t10-20.8q4.8-10.2,8.9-19t6.5-14.8q5-9.81,8.4-15.9a97.32,97.32,0,0,1,6.1-9.8,31.73,31.73,0,0,1,5.1-5.7,30.94,30.94,0,0,1,5.4-3.6,53.69,53.69,0,0,1,15.1-5.5,119.57,119.57,0,0,1,13.5-1.5c2-.14,4.33-.4,7-.8s5.33-.84,8-1.3,5.3-.87,7.9-1.2a52.53,52.53,0,0,1,6.7-.5q6.6,0,9.6,3.3a10,10,0,0,1,2.6,7.9,25,25,0,0,1-2.9,10,51.25,51.25,0,0,1-7.1,10.5,62.63,62.63,0,0,1-10.2,9.4,45.27,45.27,0,0,1-12.2,6.5h.2a70.14,70.14,0,0,1-7.4,1.9,27.6,27.6,0,0,1-4.6.5,7.82,7.82,0,0,1-2.9-.4,6.86,6.86,0,0,1-1.4-.8,1.66,1.66,0,0,1-.6-.8c-.07-.27-.3-.4-.7-.4s-.87.33-1.4,1a27.42,27.42,0,0,0-1.7,2.4c-.6.93-1.2,1.9-1.8,2.9s-1,1.76-1.3,2.3q-5.81,10.4-11,15.7t-7,6.9l20.8-1.6h1q4.6,0,6.9,2.8a8.7,8.7,0,0,1,2.1,6.2,7.07,7.07,0,0,1-4.4,6.2,14.33,14.33,0,0,0-4.9,3.1,13.05,13.05,0,0,0-2,3,25.63,25.63,0,0,1-1.6,2.9q-.9,1.39-4.1,2.7a53.7,53.7,0,0,1-9.6,2.5q-6.4,1.2-17.6,2.2l-7.6,14q-3,5-6.1,9.9a78.49,78.49,0,0,0-4.7,8.3,5.1,5.1,0,0,0-.9,1.7c-.33.86-.73,1.93-1.2,3.2s-1,2.6-1.6,4a27.05,27.05,0,0,1-1.9,3.7Z"/><path class="cls-3" d="M334.47,429.31a13.8,13.8,0,0,1-7.61,7.5,28.3,28.3,0,0,1-11.19,2.3,30.6,30.6,0,0,1-7-.8,22.89,22.89,0,0,1-5.9-2.2,12.69,12.69,0,0,1-4-3.4,7.48,7.48,0,0,1-1.5-4.6l.6-2.4q.39-5,5.3-16.5t12.5-26.2q7.59-14.7,17.1-30.9t19.3-30.5a273.25,273.25,0,0,1,19-24.9q9.19-10.6,16.2-14.4a66,66,0,0,1,10.7-3.8q6.5-1.8,12.89-3.2t11.41-2.3a47.84,47.84,0,0,1,6.59-.9q13.61,0,19.61,7.3t5.6,18.7q-.6,10.59-6,23.1a109.33,109.33,0,0,1-14.4,24,113.1,113.1,0,0,1-20.9,20.5,73.34,73.34,0,0,1-25.3,12.6l2.2,4.6v-.2q2.19,4.4,5.3,9.7t5.89,10.9a98.88,98.88,0,0,1,4.71,10.9,25.65,25.65,0,0,1,1.7,9.7,10.68,10.68,0,0,1-1.7,5.1,18.57,18.57,0,0,1-8.4,6.9,12.87,12.87,0,0,1-4.7,1,4.05,4.05,0,0,1-2.3-.6,12.48,12.48,0,0,1-1.81-1.5,27.4,27.4,0,0,0-2.09-1.9,11.76,11.76,0,0,0-3.2-1.8,24.57,24.57,0,0,1-6.4,1,9.61,9.61,0,0,1-8.7-4.6,43.77,43.77,0,0,1-4.8-11q-1.91-6.4-3.7-13.3a35.87,35.87,0,0,0-5-11.5q-4,7.2-7.5,13.4t-6.3,11.6Zm64-117.8c-1.74,2.66-3.11,4.8-4.11,6.4l-2.5,4c-.66,1.06-1.23,2-1.69,2.8s-1,1.66-1.5,2.6q-3.41,5.79-5.2,9.4c-1.2,2.4-2.14,4.26-2.8,5.6a29.58,29.58,0,0,0-1.6,3.2l1.2,1,6.2-4q4.59-2.2,8.3-4.1a37.12,37.12,0,0,0,6.7-4.4,36.53,36.53,0,0,0,5.7-6.1,58.07,58.07,0,0,0,5.5-9.4,10.15,10.15,0,0,1,2.19-5.1,10.5,10.5,0,0,0,2.21-5.5,6.84,6.84,0,0,0-1.1-3.3,4.13,4.13,0,0,0-3.9-1.9,9.22,9.22,0,0,0-5.8,2,34.1,34.1,0,0,0-4.6,4.2h.19l-2.59,2Z"/><path class="cls-3" d="M557.06,274.11q5.4.19,7.8,2.8a7.77,7.77,0,0,1,2,6.4,20.31,20.31,0,0,1-2.5,8.4,35.94,35.94,0,0,1-6.2,8.4,40.89,40.89,0,0,1-9.2,7,31.29,31.29,0,0,1-11.5,3.8q-5.4,1.39-9.3,2.5a54.94,54.94,0,0,0-6.7,2.3,22,22,0,0,0-8.8,6.6l-1.2,1.4a86.09,86.09,0,0,0-6.2,8.1,50.57,50.57,0,0,0-4.4,8.1l-2.4,5.2a19.15,19.15,0,0,0,7.4,1.6,56.26,56.26,0,0,0,10-.9,49,49,0,0,1,8.4-.9c2.27,0,3.4.66,3.4,2a6.91,6.91,0,0,1-.8,2c-1.06,2-2.3,4.1-3.7,6.3a39.49,39.49,0,0,1-5,6.3,43.6,43.6,0,0,1-6.5,5.5,30,30,0,0,1-8,3.9h.2q-4,.79-5.4,1.2c-.93.26-1.8.5-2.6.7a33.45,33.45,0,0,1-3.4.6c-1.46.2-3.93.36-7.4.5-1.2,1.46-2.76,3.5-4.7,6.1s-3.83,5.36-5.7,8.3-3.46,5.7-4.8,8.3a18.64,18.64,0,0,0-2.2,6.1c0,.8.8,1.43,2.4,1.9a30.84,30.84,0,0,0,5.6,1c2.14.2,4.2.3,6.2.3h4c2.67,0,5.37-.14,8.1-.4s6.17-.67,10.3-1.2a5.09,5.09,0,0,1,2.2,1.8,3.83,3.83,0,0,1,.6,2c-.13.66-.3,1.36-.5,2.1a7.94,7.94,0,0,0-.3,2.1c-.26,2.26,1,4.06,3.8,5.4a1.6,1.6,0,0,1,.4,1.2c0,1.06-.66,2.43-2,4.1a53,53,0,0,1-5.1,5.4,48.58,48.58,0,0,1-7.2,5.5,38.25,38.25,0,0,1-8.3,4h.2q-9.6,2.4-16.9,3.5a103,103,0,0,1-15.3,1.1h-9.1a63,63,0,0,1-11.7-1.1,28.11,28.11,0,0,1-10.1-3.9,8.38,8.38,0,0,1-3.9-8.2,6.59,6.59,0,0,1,.4-1.8,222.39,222.39,0,0,1,7.8-29.7,227.42,227.42,0,0,1,11.6-27.8q6.81-13.71,15.5-27.6t19.5-29.3a23.78,23.78,0,0,0,3.3-7.1c.74-2.6,1.4-5.17,2-7.7a31.18,31.18,0,0,1,2.4-6.8,9.29,9.29,0,0,1,4.5-4.4q15.6-5.61,31.1-9.7a110,110,0,0,1,27.9-4.1c1.6,0,3.24.06,4.9.2s3.3.33,4.9.6Z"/><path class="cls-3" d="M635.26,277.91q3.79-1.61,7.5-2.9a20.36,20.36,0,0,1,6.7-1.3,28.36,28.36,0,0,1,6.3.7,18.85,18.85,0,0,1,5.5,2.1,11.65,11.65,0,0,1,3.8,3.4,6.54,6.54,0,0,1,1.2,4.4q0,3-3.8,7.6a13.5,13.5,0,0,1,7.2,10.2q-5.8,15.19-11.1,30.2t-10.5,29.9q-5.2,14.9-10.6,29.9t-11.4,30.2l-2,4.4c-.53,1.46-1,2.8-1.4,4a41,41,0,0,1-1.6,4,23.89,23.89,0,0,1-7.6,4.4,25.22,25.22,0,0,1-8.6,1.6,29.4,29.4,0,0,1-5.3-.5,20.32,20.32,0,0,1-5-1.6,11.51,11.51,0,0,1-3.7-2.7,5.61,5.61,0,0,1-1.4-3.8,25.63,25.63,0,0,1,2.5-7.9,52.42,52.42,0,0,0,3.5-10.9l2.8-9.4a34.77,34.77,0,0,0-6.5,2.2,53.83,53.83,0,0,0-5.6,2.9c-1.67,1-3.13,1.9-4.4,2.7s-2.23,1.4-2.9,1.8a19.76,19.76,0,0,1-4.9,2.1,22.94,22.94,0,0,1-3.8.6,22.37,22.37,0,0,0-3.2.4,7.44,7.44,0,0,0-2.9,1.3,103.65,103.65,0,0,1-15.6,17.6q-8,7-17.2,7a13.13,13.13,0,0,1-4.1-.7,10.82,10.82,0,0,1-3.7-2.1,12,12,0,0,1-2.7-3.6,10.57,10.57,0,0,1-.9-5.4,34.48,34.48,0,0,1,2.1-9.2,112.65,112.65,0,0,1,4.3-10.5q2.4-5.1,4.6-9.2c1.47-2.74,2.53-4.64,3.2-5.7q9.6-15.81,20.4-31.6t22.8-30.7q12-14.91,25.2-28.6a287.14,287.14,0,0,1,28-25.5l-.2.2Zm-50.2,108.4,18.8-.6,5.7-17.9q2.9-9.1,6.1-17.9l5.8-16.6-1.6-.8-10.6,12.4q-1.6,3.19-3.7,6.9t-3.9,6.9Z"/><path class="cls-3" d="M730.66,427.71a124.94,124.94,0,0,1-20.7,8.6,72.56,72.56,0,0,1-22.1,3.6,63.64,63.64,0,0,1-15-1.7,30.72,30.72,0,0,1-12.2-5.9,27.71,27.71,0,0,1-8.1-11.1q-2.89-6.9-2.3-17.1a118.32,118.32,0,0,1,4.9-27.4,150.55,150.55,0,0,1,10.6-26.1,165.77,165.77,0,0,1,14.8-23.5,173.61,173.61,0,0,1,17.2-19.7,136.22,136.22,0,0,1,17.9-14.9,74.14,74.14,0,0,1,16.8-9,88,88,0,0,1,17-6.1,70.64,70.64,0,0,1,16.8-2.1c1.2,0,2.33,0,3.4.1s2.13.16,3.2.3h-.2q13.2,1.8,19.4,8.7t5.8,17.5a50.44,50.44,0,0,1-3.1,13.5,87,87,0,0,1-7.1,14.9,27.05,27.05,0,0,1-5.9,6.9,35.89,35.89,0,0,1-7.5,4.8,43,43,0,0,1-8.1,2.9,32.18,32.18,0,0,1-7.5,1c-3.6,0-6.17-.74-7.7-2.2a7.37,7.37,0,0,1-2.1-6,15.66,15.66,0,0,1,1.4-4.9,17,17,0,0,0,1.4-5.9c.13-2.27-.17-3.8-.9-4.6a4,4,0,0,0-3.1-1.2l-3.4.4a9.82,9.82,0,0,0-3.4,1l-3.2,1.6c-1.47.8-2.93,1.63-4.4,2.5a47.52,47.52,0,0,0-4.7,3.2,71.63,71.63,0,0,0-5.7,4.9q-3.2,3-7.6,7.8a112.06,112.06,0,0,0-10.4,13.2,97.18,97.18,0,0,0-7.2,12.6,68.11,68.11,0,0,0-4.1,10.8,41.5,41.5,0,0,0-1.5,7.8,16,16,0,0,0,1,6.9,12.83,12.83,0,0,0,3.2,4.7,13.73,13.73,0,0,0,4.4,2.7,13.07,13.07,0,0,0,4.6.9,18.58,18.58,0,0,0,7.1-1.2,41.21,41.21,0,0,0,5.4-2.7,54.23,54.23,0,0,1,5.1-2.7,14.68,14.68,0,0,1,6.2-1.2,31.64,31.64,0,0,1,3.2.2,14.16,14.16,0,0,1,3.8.9,9.61,9.61,0,0,1,3.1,1.9,4.12,4.12,0,0,1,1.3,3.2,16.32,16.32,0,0,1-1.3,4.8,16.16,16.16,0,0,0-1.3,4.8,2.92,2.92,0,0,0,.7,2,6.22,6.22,0,0,0,1.6,1.3,14.14,14.14,0,0,1,1.7,1.1,1.73,1.73,0,0,1,.8,1.4,4.7,4.7,0,0,1-1.3,3.1,27,27,0,0,1-3.1,3q-1.8,1.5-3.9,3t-3.9,2.7Z"/><path class="cls-3" d="M804.46,431.11q-5.6,8.19-10.2,10.5a19.74,19.74,0,0,1-8.8,2.3q-6.8,0-11.1-2.6t-3.9-8.2q.19-5,4.2-12.6,7.61-17.81,12.4-29.1t8.1-18.8q3.3-7.5,5.5-12.3t4.6-9.5q2.4-4.71,5.6-10.6t8.6-15.5c-.94.13-1.83.23-2.7.3s-1.77.1-2.7.1a19.67,19.67,0,0,1-10.2-2.5,7.59,7.59,0,0,1-3.8-7.7,20.41,20.41,0,0,1,4.6-12.4,67.89,67.89,0,0,1,12.2-10.8,99.35,99.35,0,0,1,15.3-6.7q9.71-3.51,20.9-6.5t22.7-5a120.42,120.42,0,0,1,20.5-2,15.63,15.63,0,0,1,5.5,1,16.5,16.5,0,0,1,4.7,2.6,12.91,12.91,0,0,1,3.2,3.7,8.22,8.22,0,0,1,1.2,4.1q-.4,4-6,7.2a11.76,11.76,0,0,0-5.2,5.7q-1.8,3.9-3.7,7.9a33.49,33.49,0,0,1-4.7,7.3,11.61,11.61,0,0,1-7.8,3.9,17,17,0,0,1-5,1.6c-1.73.26-3.4.5-5,.7s-3,.43-4.2.7a3.25,3.25,0,0,0-2.4,1.6l-10.2,18.8q-6.21,11.4-13.2,24.6t-14,25.9q-7,12.69-13.5,23.8T804.46,431.11Z"/></g></g></svg>